<svg
    viewBox = "-50 -50 100 100"
    version="1.1"
    xmlns:xlink="http://www.w3.org/1999/xlink"
    xmlns="http://www.w3.org/2000/svg">
    <style>
        @keyframes rotate {
            0% {
                transform: translate(0,-97px) rotate(0deg);
            }
            100% {
                transform: translate(0,-97px) rotate(360deg);
            }
        }
        #inner-rays {
            animation: rotate 60s linear infinite;
        }
        #flame-bits {
            animation: rotate 240s linear reverse infinite;
        }
    </style>
    <g
     id="Sun"
     style="transform:translate(-10px,-97px)">
    <path
       transform="translate(0,-96.999999)"
       id="long-rays"
       style="fill:none;stroke:#ffffff;stroke-width:0.17843577;opacity:0.5;"
       d="M 9.8705894,196.99388 -4.1885704,249.46341 M 9.8705868,196.99388 -28.539769,235.40424 M 9.8705868,196.99388 -42.598942,211.05305 M 9.8705868,196.99388 -42.598945,182.93472 M 9.8705868,196.99388 -28.539779,158.58352 M 9.8767499,196.99541 -4.1824261,144.52588 M 9.8853413,196.99422 23.944501,249.46376 M 9.8853413,196.99422 48.295698,235.40459 M 9.8853413,196.99422 62.354869,211.0534 M 9.8853413,196.99422 62.354873,182.93506 M 9.8853413,196.99422 48.295707,158.58386 M 9.8791784,196.99576 23.938354,144.52623" />
    <path
       transform="translate(0,-96.999999)"
       id="short-rays"
       style="fill:none;stroke:#ffffff;stroke-width:0.26765367;opacity:0.5;"
       d="M 9.8705868,196.99388 3.5520933,243.68581 M 9.8698284,196.9929 -8.2987101,240.62437 M 9.8203633,196.97048 -18.997587,234.24764 M 9.8201885,196.96926 -27.729959,225.67095 m 37.5993324,-28.6769 -43.5956584,17.874 M 9.8698284,196.9929 -37.000389,203.07422 m 46.8207523,-6.10374 -46.6919463,-6.3185 M 9.8213269,196.96972 -33.810132,178.80118 M 9.8681583,196.99422 -27.409009,168.17627 M 9.8693734,196.99405 -18.832312,159.44389 M 9.8213269,196.96972 -8.0526701,153.37406 M 9.8224662,196.97017 3.7411531,150.09995 m 6.1355968,46.89546 6.3184931,46.69194 M 9.8775083,196.99444 28.046047,240.6259 M 9.9269732,196.97202 38.744922,234.24918 M 9.927148,196.9708 47.477296,225.67248 m -37.5993327,-28.6769 43.5956587,17.874 M 9.8775083,196.99444 56.747726,203.07575 M 9.9269732,196.97202 56.61892,190.65352 M 9.9260096,196.97125 53.557469,178.80272 M 9.8791784,196.99576 47.156345,168.1778 M 9.8779633,196.99558 38.579649,159.44542 M 9.9260096,196.97125 27.800007,153.37559 M 9.9248703,196.97171 16.006183,150.10148" />
    <circle
       transform="translate(0,-96.999999)"
       style="fill:#111111;stroke:#ffffff;stroke-width:0.5;"
       id="cover-circle"
       cx="9.8853436"
       cy="196.99422"
       r="35.338299" />
    <circle
       transform="translate(0,-96.999999)"
       style="fill:none;stroke:#FF5722;stroke-width:0.19052169;"
       id="inner-ring"
       cx="9.999999"
       cy="197"
       r="21.394062" />
    <path
       transform="translate(0,-96.999999)"
       id="flame-bits"
       style="fill:none;stroke:#fff59c;stroke-width:0.26458332px;transform-origin: 10px 197px;"
       d="m -15.546234,199.73566 c -4.22991,-0.38419 -3.91465,-2.10952 -7.617182,-2.33861 2.208663,-2.27584 4.325019,-0.59301 7.550371,-2.60587 m 29.085269,28.8475 c -0.384183,4.22992 -2.109529,3.91465 -2.338613,7.61718 -2.2758801,-2.20863 -0.593009,-4.32501 -2.6058771,-7.55037 M -16.015583,192.48327 c -3.986345,-1.46588 -3.235279,-3.05082 -6.752359,-4.2304 2.722437,-1.62664 4.331132,0.5466 7.967552,-0.5629 m 20.6279285,35.39237 c -1.4658741,3.98635 -3.0508309,3.23528 -4.2303938,6.75236 -1.62669374,-2.72241 0.5465935,-4.33113 -0.5629045,-7.96755 M -10.700347,180.04917 c -2.719336,-3.26266 -1.276421,-4.25973 -3.732513,-7.03981 3.171021,-0.0475 3.477571,2.63893 7.1815497,3.49629 m 0.1681252,40.96466 c -3.2626589,2.71934 -4.2597349,1.27641 -7.0398079,3.73251 -0.04755,-3.17103 2.638928,-3.47757 3.496284,-7.18155 m -3.500017,-28.22733 c -3.471116,-2.44767 -2.335428,-3.78422 -5.427369,-5.83388 3.050667,-0.86665 4.042084,1.64895 7.841757,1.51843 m 10.76482147,39.5253 c -2.44766947,3.47112 -3.78422147,2.33543 -5.83388237,5.42737 -0.8666471,-3.05066 1.6489439,-4.04208 1.5184283,-7.84175 m 6.6141447,-46.1671 c -0.72368267,-4.18521 1.0244524,-4.32724 0.2874517,-7.9629 2.7699565,1.54433 1.6922001,4.02416 4.4712646,6.61864 m -20.3367254,35.5605 c -4.185216,0.72368 -4.327247,-1.02446 -7.962911,-0.28746 1.544335,-2.76995 4.024167,-1.6922 6.61865,-4.47126 m 10.5869379,-26.84071 c -1.7822361,-3.85531 -0.130428,-4.44495 -1.7832941,-7.76598 3.0752751,0.7748 2.6760705,3.44907 6.03194062,5.23587 M -11.17555,212.12135 c -3.855305,1.78224 -4.444949,0.13042 -7.76598,1.78329 0.774795,-3.07528 3.449072,-2.67607 5.235876,-6.03194 m 32.823705,14.02294 c 0.723682,4.18522 -1.024454,4.32725 -0.287453,7.96291 -2.769957,-1.54434 -1.692201,-4.02417 -4.471266,-6.61865 m 20.336735,-35.56049 c 4.185214,-0.72369 4.327245,1.02445 7.962907,0.28745 -1.544334,2.76996 -4.024165,1.69221 -6.618646,4.47127 m -10.794552,25.87839 c 1.782237,3.85531 0.130428,4.44495 1.783294,7.76598 -3.075276,-0.77479 -2.676071,-3.44907 -6.031943,-5.23587 M 31.437171,181.2343 c 3.855304,-1.78224 4.444947,-0.13043 7.765985,-1.78331 -0.774795,3.07528 -3.449079,2.67609 -5.235882,6.03195 m -3.955997,27.79375 c 2.719333,3.26265 1.276418,4.25972 3.732511,7.0398 -3.17102,0.0476 -3.477572,-2.63893 -7.181553,-3.49628 m -0.168117,-40.96466 c 3.262659,-2.71934 4.259731,-1.27642 7.039804,-3.73252 0.04755,3.17103 -2.638924,3.47758 -3.496283,7.18155 m 3.487363,28.30495 c 3.471114,2.44767 2.335427,3.78422 5.427366,5.83389 -3.050665,0.86664 -4.042082,-1.64895 -7.841752,-1.51843 M 20.245793,172.39968 c 2.447671,-3.47112 3.784223,-2.33543 5.833884,-5.42737 0.866647,3.05067 -1.648944,4.04209 -1.518428,7.84175 m 11.016045,26.46974 c 3.986343,1.46588 3.235278,3.05083 6.752354,4.2304 -2.722413,1.62668 -4.331131,-0.5466 -7.967549,0.5629 M 13.734175,170.68473 c 1.465879,-3.98635 3.050827,-3.23528 4.230394,-6.75236 1.626687,2.72241 -0.546589,4.33113 0.562906,7.96755 m 18.041343,22.85188 c 4.22991,0.38419 3.91465,2.10952 7.61718,2.33861 -2.20863,2.27587 -4.32502,0.59301 -7.55037,2.60588 M 7.5503642,170.84878 c 0.3841876,-4.22991 2.1095204,-3.91465 2.3386082,-7.61718 2.2758716,2.20863 0.5930156,4.32502 2.6058786,7.55037" />
    <circle
       transform="translate(0,-97)"
       style="fill:none;stroke:#FFEB3B;"
       id="outer-ring"
       cx="10.058403"
       cy="196.9416"
       r="26.221409" />
    <circle
       style="fill:none;stroke:#FF9800;stroke-width:2.06349158;stroke-dasharray:0.2, 0.5;transform-origin: 10px 197px;"
       id="inner-rays"
       cx="10"
       cy="197"
       r="23.536921" />
  </g>
</svg>
